<?xml version="1.0" encoding="UTF-8"?>
<svg id="Layer_2" xmlns="http://www.w3.org/2000/svg" version="1.1" xmlns:xlink="http://www.w3.org/1999/xlink" viewBox="0 0 512 512">
  <!-- Generator: Adobe Illustrator 29.6.1, SVG Export Plug-In . SVG Version: 2.1.1 Build 9)  -->
  <defs>
    <linearGradient id="linear-gradient" x1="90" y1="374.3" x2="90" y2="374.3" gradientUnits="userSpaceOnUse">
      <stop offset="0" stop-color="#fff"/>
      <stop offset="1" stop-color="#000"/>
    </linearGradient>
  </defs>
  <path d="M490,394.3c0,26.5-21.5,48-48,48s-48-21.5-48-48,1.8-15,5-21.4l-42.5-29.7c-24.6,19.8-55.1,32.4-88.5,34.9v39.4c20.7,5.3,36,24.1,36,46.5s-21.5,48-48,48-48-21.5-48-48,15.3-41.2,36-46.5v-39.4c-33.4-2.5-63.9-15.1-88.5-34.9l-42.5,29.7c3.2,6.4,5,13.7,5,21.4,0,26.5-21.5,48-48,48s-48-21.5-48-48,21.5-48,48-48,19.4,3.1,27.1,8.4l40.5-28.2c-11.1-12.1-20.3-25.8-27.3-40.8l42,4.1,1.8,25.5c.2,3.1,2.7,5.5,5.7,5.7l61.1,4.4c3.2.2,6.1-2.1,6.6-5.3l3.5-23.8h49.9l3.5,23.8c.4,3,3.1,5.3,6.1,5.3s.3,0,.4,0l61.1-4.4c3.1-.2,5.5-2.7,5.7-5.7l1.8-25.5,42-4.1c-7,15-16.2,28.8-27.3,40.8l40.5,28.2c7.7-5.3,17-8.4,27.1-8.4,26.5,0,48,21.5,48,48Z" fill="#246cd1"/>
  <path d="M442,59.7c-26.5,0-48,21.5-48,48s0,1.6,0,2.3c-4.4,2.3-8.7,4.8-12.9,7.3-3.9,2.4-7.7,4.8-11.5,7.3-5-5-10.6-9-16.1-13.3-5.5-4.3-11.6-7.5-17.4-11.3.9-6.7,1.6-13.4,2-20.1.4-6.2.7-12.4.9-18.7-15-7.5-31-12.5-47.1-16.1-2.8,4.7-5.5,9.7-8.1,14.6-3.4,6.4-6.5,13-9.4,19.4-6.1-1-12.2-1.4-18.3-1.5h-.2c-6.1,0-12.2.4-18.3,1.5-2.9-6.5-6-13-9.4-19.4-2.6-5-5.3-9.9-8.1-14.6-16.2,3.6-32.1,8.6-47.1,16.1.2,6.3.5,12.5.9,18.7.5,6.7,1.1,13.4,2,20.1-5.8,3.7-11.9,6.9-17.4,11.3-5.5,4.2-11.1,8.3-16.1,13.3-3.8-2.5-7.6-4.9-11.5-7.3-4.2-2.5-8.5-5-12.9-7.3,0-.8,0-1.6,0-2.3,0-26.5-21.5-48-48-48s-48,21.5-48,48,21.5,48,48,48,8.9-.6,13.1-1.8c5.7,8.8,11.7,17.3,17.3,24.3-3.2,12.7-5,26.1-5,39.8s1.9,28.3,5.4,41.5c1.2,4.5,2.6,8.9,4.1,13.2l53.8,5.2c3,.3,5.4,2.7,5.6,5.7l1.8,25.3,50.1,3.6,3.4-23.4c.5-3,3.1-5.3,6.1-5.3h60.6c3.1,0,5.7,2.2,6.1,5.3l3.4,23.4,50.1-3.6,1.8-25.3c.2-3,2.6-5.4,5.6-5.7l53.8-5.2c1.6-4.3,3-8.8,4.1-13.2,3.5-13.2,5.4-27.2,5.4-41.5s-1.7-27.1-5-39.8c6.3-7.9,12.2-16.5,17.3-24.3,4.1,1.2,8.5,1.8,13,1.8,26.5,0,48-21.5,48-48s-21.5-48-48-48ZM174.6,251.3c-19.1,0-34.6-15.5-34.6-34.6s15.5-34.6,34.6-34.6,34.6,15.5,34.6,34.6-15.5,34.6-34.6,34.6ZM267.2,244.3c0,5.6-5,10.1-11.2,10.1s-11.1-4.5-11.1-10.1v-31.8c0-5.6,5-10.1,11.1-10.1s11.2,4.5,11.2,10.1v31.8ZM337.4,251.3c-19.1,0-34.6-15.5-34.6-34.6s15.5-34.6,34.6-34.6,34.6,15.5,34.6,34.6-15.5,34.6-34.6,34.6Z" fill="#2898eb"/>
  <path d="M90,374.3" fill="url(#linear-gradient)" stroke="#478cbf" stroke-miterlimit="10" stroke-width="24"/>
</svg>